<?xml version="1.0" encoding="iso-8859-1"?>
<!-- Uploaded to: SVG Repo, www.svgrepo.com, Generator: SVG Repo Mixer Tools -->
<svg height="40px" width="40px" version="1.1" id="Layer_1" xmlns="http://www.w3.org/2000/svg" xmlns:xlink="http://www.w3.org/1999/xlink" 
	 viewBox="0 0 508 508" xml:space="preserve">
<circle style="fill:#324A5E;" cx="254" cy="254" r="254"/>
<path style="fill:#FFD05B;" d="M293.6,408.4h-79.2v40c0,10.4,8.4,19.2,19.2,19.2h40.8c10.4,0,19.2-8.4,19.2-19.2V408.4z"/>
<g>
	<path style="fill:#F9B54C;" d="M214.4,433.2H208c-2.8,0-4.8,2-4.8,4.8s2,4.8,4.8,4.8h6.4V433.2z"/>
	<path style="fill:#F9B54C;" d="M293.6,433.2h6.4c2.8,0,4.8,2,4.8,4.8s-2,4.8-4.8,4.8h-6.4V433.2z"/>
</g>
<path style="fill:#E6E9EE;" d="M218.8,408.8h70.4c10.4,0,19.2-8,20.8-18.4c4.4-34.4,18-67.2,38.8-96c14-19.2,22.4-43.2,22.4-69.2
	c0-67.6-57.2-121.6-125.6-116.8c-58.4,4-105.6,52-108.4,110.8c-1.6,28.8,7.6,55.2,23.2,76.4c20.8,27.6,34,60.4,38,94.8
	C199.6,401.2,208.4,408.8,218.8,408.8z"/>
<g>
	<path style="fill:#FFFFFF;" d="M151.6,222c0,28,13.2,53.2,33.6,69.6c-12-15.2-19.6-34.4-19.6-55.6c0-24.4,10-46.4,25.6-62.4l-14-14
		C161.6,175.6,151.6,197.6,151.6,222z"/>
	<path style="fill:#FFFFFF;" d="M200.8,165.2c7.2-5.6,15.6-10,24.4-13.2l-13.6-14c-8.8,3.2-17.2,7.6-24.4,13.2L200.8,165.2z"/>
</g>
<path style="fill:#CED5E0;" d="M287.6,225.2c0-1.2-0.8-2-2-2s-2,0.8-2,2v2.8h-6l-5.2-6.4c-0.8-0.8-2.4-0.8-3.2,0l-4,5.2l-4-5.2
	c-0.8-0.8-2.4-0.8-3.2,0l-4,5.2l-4-5.2c-0.8-0.8-2.4-0.8-3.2,0l-4,5.2l-4-5.2c-0.8-0.8-2.4-0.8-3.2,0l-5.2,6.4h-6v-2.8
	c0-1.2-0.8-2-2-2s-2,0.8-2,2V262l20.4,66v80.8h4v-81.2l-20.4-66V232h7.2c0.8,0,1.2-0.4,1.6-0.8l4-5.2l4,5.2c0.8,0.8,2.4,0.8,3.2,0
	l4-5.2l4,5.2c0.8,0.8,2.4,0.8,3.2,0l4-5.2l4,5.2c0.8,0.8,2.4,0.8,3.2,0l4-5.2l4,5.2c0.4,0.4,0.8,0.8,1.6,0.8h7.2v29.6l-20.4,66v0.4
	v81.2h4v-80.8l20.4-66V230l0,0l0,0V225.2z"/>
<g>
	<path style="fill:#FFFFFF;" d="M254,84L254,84c-3.6,0-6.8-2.8-6.8-6.8V46.8c0-3.6,2.8-6.8,6.8-6.8l0,0c3.6,0,6.8,2.8,6.8,6.8v30.4
		C260.8,80.8,257.6,84,254,84z"/>
	<path style="fill:#FFFFFF;" d="M392.4,222L392.4,222c0-3.6,2.8-6.8,6.8-6.8h30.4c3.6,0,6.8,2.8,6.8,6.8l0,0c0,3.6-2.8,6.8-6.8,6.8
		h-30.4C395.2,228.8,392.4,225.6,392.4,222z"/>
	<path style="fill:#FFFFFF;" d="M72,222L72,222c0-3.6,2.8-6.8,6.8-6.8h30.4c3.6,0,6.8,2.8,6.8,6.8l0,0c0,3.6-2.8,6.8-6.8,6.8H78.8
		C75.2,228.8,72,225.6,72,222z"/>
	<path style="fill:#FFFFFF;" d="M351.6,124.4L351.6,124.4c-2.4-2.4-2.4-6.8,0-9.2l21.6-21.6c2.4-2.4,6.8-2.4,9.2,0l0,0
		c2.4,2.4,2.4,6.8,0,9.2l-21.6,21.6C358.4,126.8,354.4,126.8,351.6,124.4z"/>
	<path style="fill:#FFFFFF;" d="M125.6,350.8L125.6,350.8c-2.4-2.4-2.4-6.8,0-9.2l21.6-21.6c2.4-2.4,6.8-2.4,9.2,0l0,0
		c2.4,2.4,2.4,6.8,0,9.2l-21.6,21.6C132,353.2,128,353.2,125.6,350.8z"/>
	<path style="fill:#FFFFFF;" d="M351.6,320L351.6,320c2.4-2.4,6.8-2.4,9.2,0l21.6,21.6c2.4,2.4,2.4,6.8,0,9.2l0,0
		c-2.4,2.4-6.8,2.4-9.2,0l-21.6-21.6C349.2,326.8,349.2,322.4,351.6,320z"/>
	<path style="fill:#FFFFFF;" d="M125.6,93.6L125.6,93.6c2.4-2.4,6.8-2.4,9.2,0l21.6,21.6c2.4,2.4,2.4,6.8,0,9.2l0,0
		c-2.4,2.4-6.8,2.4-9.2,0l-21.6-21.6C122.8,100.4,122.8,96,125.6,93.6z"/>
</g>
</svg>