<?xml version="1.0" encoding="iso-8859-1"?>
<!-- Uploaded to: SVG Repo, www.svgrepo.com, Generator: SVG Repo Mixer Tools -->
<svg version="1.1" id="Layer_1" xmlns="http://www.w3.org/2000/svg" xmlns:xlink="http://www.w3.org/1999/xlink" 
	 viewBox="0 0 504.123 504.123" xml:space="preserve">
<circle style="fill:#FD8469;" cx="252.062" cy="252.062" r="252.062"/>
<polygon style="fill:#F4F4F4;" points="124.062,94.523 124.062,409.6 322.56,409.6 380.062,352.098 380.062,94.523 "/>
<g>
	<rect x="153.206" y="179.594" style="fill:#ACB3BA;" width="197.711" height="5.908"/>
	<rect x="153.206" y="211.495" style="fill:#ACB3BA;" width="197.711" height="5.908"/>
	<rect x="153.206" y="243.397" style="fill:#ACB3BA;" width="197.711" height="5.908"/>
	<rect x="153.206" y="274.905" style="fill:#ACB3BA;" width="197.711" height="5.908"/>
	<rect x="153.206" y="306.806" style="fill:#ACB3BA;" width="197.711" height="5.908"/>
	<rect x="153.206" y="338.708" style="fill:#ACB3BA;" width="197.711" height="5.908"/>
	<rect x="153.206" y="370.609" style="fill:#ACB3BA;" width="93.342" height="5.908"/>
	<polygon style="fill:#ACB3BA;" points="322.56,409.6 380.062,352.098 322.56,352.098 	"/>
</g>
<rect x="204.8" y="124.455" style="fill:#2C9984;" width="93.735" height="14.572"/>
<polygon style="fill:#324A5E;" points="174.474,329.649 168.172,325.317 203.618,274.117 261.12,274.117 269.785,228.431 
	317.834,210.708 317.834,182.351 325.711,182.351 325.711,216.222 276.48,234.338 267.422,281.994 207.951,281.994 "/>
<circle style="fill:#FF7058;" cx="169.354" cy="332.012" r="11.422"/>
<circle style="fill:#54C0EB;" cx="205.982" cy="278.055" r="11.422"/>
<circle style="fill:#F9B54C;" cx="264.271" cy="278.055" r="11.422"/>
<circle style="fill:#ACB3BA;" cx="273.329" cy="231.582" r="11.422"/>
<circle style="fill:#FF7058;" cx="321.772" cy="213.465" r="11.422"/>
<circle style="fill:#2C9984;" cx="321.772" cy="176.049" r="11.422"/>
</svg>