<!DOCTYPE svg PUBLIC "-//W3C//DTD SVG 1.1//EN" "http://www.w3.org/Graphics/SVG/1.1/DTD/svg11.dtd">

<!-- Uploaded to: SVG Repo, www.svgrepo.com, Transformed by: SVG Repo Mixer Tools -->
<svg version="1.1" id="Layer_1" xmlns="http://www.w3.org/2000/svg" xmlns:xlink="http://www.w3.org/1999/xlink" viewBox="0 0 504 504" xml:space="preserve" fill="#000000">

<g id="SVGRepo_bgCarrier" stroke-width="0"/>

<g id="SVGRepo_tracerCarrier" stroke-linecap="round" stroke-linejoin="round"/>

<g id="SVGRepo_iconCarrier"> <circle style="fill:#859cf9;" cx="252" cy="252" r="252"/> <path style="fill:#FFFFFF;" d="M230.8,365.4l-92.2-92.2c-1.3-1.3-1.3-3.3,0-4.6l25.9-25.9c1.3-1.3,3.3-1.3,4.6,0l92.2,92.2 c1.3,1.3,1.3,3.3,0,4.6l-25.9,25.9C234.1,366.7,232.1,366.7,230.8,365.4z"/> <polygon style="fill:#2B3B4E;" points="183.5,417.4 86.6,320.5 146.5,281.2 222.8,357.5 "/> <path style="fill:#ffcb47;" d="M401.6,114l-68.4,68.4c6.4,11.4,4.7,26.2-5,35.9c-11.7,11.7-30.8,11.7-42.6,0 c-11.7-11.7-11.7-30.8,0-42.6c9.7-9.7,24.4-11.4,35.9-5l68.3-68.3l-192,44l-23.4,102l81,81l102-23.4L401.6,114z"/> </g>

</svg>