<?xml version="1.0" encoding="UTF-8"?>
<svg id="Layer_2" data-name="Layer 2" xmlns="http://www.w3.org/2000/svg" xmlns:xlink="http://www.w3.org/1999/xlink" viewBox="0 0 153 164.99">
  <defs>
    <style>
      .cls-1 {
        fill: url(#linear-gradient);
      }
    </style>
    <linearGradient id="linear-gradient" x1="0" y1="82.5" x2="153" y2="82.5" gradientUnits="userSpaceOnUse">
      <stop offset="0" stop-color="#ed1c24"/>
      <stop offset="1" stop-color="#f26522"/>
    </linearGradient>
  </defs>
  <g id="Layer_1-2" data-name="Layer 1">
    <path class="cls-1" d="m51.52,36.39c-10.51,0-20.66,4.33-28.57,12.18l-1.91,1.89v-11.72c-.2,0-.4,0-.6,0-9.84,0-20.44,5.54-20.44,17.69v108.55h21.04v-72.66c0-11.07,2.48-36.83,25.47-36.83,18.01,0,26.21,14.66,26.21,28.28s-9.01,28.61-26.21,28.61c-4.12,0-13.76-.68-19.19-6.55-1.33,3.98-1.16,10.12,1.82,15.31,2.6,4.53,8.26,10.01,20.47,10.47.38,0,.77.01,1.15.01,10.88,0,21.74-4.87,29.79-13.35,8.5-8.96,13.18-21.06,13.18-34.07,0-31.07-21.75-47.83-42.22-47.83Zm75.95-9.9c0-5.62,3.66-9.25,9.33-9.25,4.5,0,9.92,2.46,12.47,7.17,3.71-4.68,4.69-9.35,2.81-13.57-2.89-6.49-12.14-10.85-23.04-10.85-.38,0-.76,0-1.15.01-8.16.32-13.73,2.43-17.02,6.44-4.82,5.88-4.73,15.82-4.65,26.33.02,1.5.03,3.01.03,4.53v1.12h-29.64s10.96,3.8,16.69,17.79h12.95v73.6h21.21V56.22h6.53c9.27,0,16.08-7.41,16.54-17.79h-23.07v-11.94Z"/>
  </g>
</svg>