<?xml version="1.0" ?><!-- Uploaded to: SVG Repo, www.svgrepo.com, Generator: SVG Repo Mixer Tools -->
<svg width="800px" height="800px" viewBox="0 0 50 50" data-name="Layer 1" id="Layer_1" xmlns="http://www.w3.org/2000/svg"><defs><style>.cls-1{fill:#231f20;}.cls-2{fill:#d12200;}.cls-3{fill:#ffffff;}.cls-4{fill:#ff8e5a;}.cls-5{fill:#ffba50;}</style></defs><title/><path class="cls-1" d="M40.962,37.846a20.5,20.5,0,1,0-31.924,0,20.483,20.483,0,0,0-2.681,4.322.5.5,0,0,0,.223.65l4.993,2.625a.5.5,0,0,0,.4.029.5.5,0,0,0,.293-.274,13.886,13.886,0,0,1,1.712-2.923,20.442,20.442,0,0,0,22.044,0A13.886,13.886,0,0,1,37.734,45.2a.5.5,0,0,0,.293.274.481.481,0,0,0,.167.029.506.506,0,0,0,.233-.058l4.993-2.625a.5.5,0,0,0,.223-.65A20.45,20.45,0,0,0,40.962,37.846Z"/><path class="cls-2" d="M5.5,25A19.5,19.5,0,1,1,40.305,37.059a20.567,20.567,0,0,0-3.469-3.1A14.851,14.851,0,1,0,10.144,25a14.687,14.687,0,0,0,3.018,8.961,20.581,20.581,0,0,0-3.467,3.1A19.517,19.517,0,0,1,5.5,25Z"/><path class="cls-3" d="M13.985,33.394A13.7,13.7,0,0,1,11.144,25a13.856,13.856,0,1,1,24.868,8.393,20.368,20.368,0,0,0-22.027,0Z"/><path class="cls-2" d="M25,44.5a19.4,19.4,0,0,1-10.383-3.006,13.849,13.849,0,0,1,3.958-3.1,14.819,14.819,0,0,0,12.851,0,13.859,13.859,0,0,1,3.957,3.1A19.4,19.4,0,0,1,25,44.5Z"/><path class="cls-3" d="M19.8,37.822a13.793,13.793,0,0,1,10.406,0A13.942,13.942,0,0,1,19.8,37.822Z"/><path class="cls-4" d="M38.431,44.31a14.856,14.856,0,0,0-26.862,0l-4.1-2.155a19.473,19.473,0,0,1,35.062,0Z"/><path class="cls-1" d="M28.366,26.971a2.858,2.858,0,0,0,2.831-2.5l.513-4.083a1.732,1.732,0,0,0-1.719-1.948H28.369a5.894,5.894,0,0,0,.345-1.994,1.5,1.5,0,1,0-3,0,2.981,2.981,0,0,1-.121.842,1.7,1.7,0,0,1-1.657,1.152c-.014,0-.025.006-.039.007s-.024-.007-.038-.007H18.776a.5.5,0,0,0-.5.5v7.528a.5.5,0,0,0,.5.5h5.083c.014,0,.025-.007.038-.008s.025.008.039.008Z"/><path class="cls-3" d="M26.552,17.575a3.992,3.992,0,0,0,.162-1.126.5.5,0,0,1,1,0,4.922,4.922,0,0,1-.551,2.266.5.5,0,0,0,.445.728h2.383a.733.733,0,0,1,.727.823l-.513,4.083a1.856,1.856,0,0,1-1.839,1.622H24.359V19.409A2.671,2.671,0,0,0,26.552,17.575Z"/><rect class="cls-5" height="6.528" width="4.083" x="19.276" y="19.443"/></svg>