<?xml version="1.0" encoding="iso-8859-1"?>
<!-- Uploaded to: SVG Repo, www.svgrepo.com, Generator: SVG Repo Mixer Tools -->
<svg width="800px" height="800px" version="1.1" id="Layer_1" xmlns="http://www.w3.org/2000/svg" xmlns:xlink="http://www.w3.org/1999/xlink" 
	 viewBox="0 0 512.003 512.003" xml:space="preserve">
<path style="fill:#84DCCF;" d="M264.146,450.18h-23.28c-8.571,0-15.519-6.948-15.519-15.519l0,0c0-8.571,6.948-15.519,15.519-15.519
	h23.28c8.571,0,15.519,6.948,15.519,15.519l0,0C279.667,443.232,272.717,450.18,264.146,450.18z"/>
<g>
	<rect x="54.63" y="194.105" style="fill:#F14507;" width="23.283" height="108.993"/>
	<rect x="434.861" y="193.937" style="fill:#F14507;" width="23.283" height="109.171"/>
</g>
<rect x="396.063" y="186.347" style="fill:#84DCCF;" width="38.799" height="124.161"/>
<rect x="396.063" y="186.347" style="fill:#027EA8;" width="23.283" height="124.161"/>
<rect x="77.913" y="186.347" style="fill:#84DCCF;" width="38.799" height="124.161"/>
<rect x="77.913" y="186.347" style="fill:#027EA8;" width="23.283" height="124.161"/>
<circle style="fill:#FBB03B;" cx="256.387" cy="248.428" r="147.434"/>
<path style="fill:#F15A24;" d="M202.068,248.426c0-65.139,42.291-120.307,100.877-139.813c-14.649-4.877-30.271-7.622-46.558-7.622
	c-81.426,0-147.436,66.009-147.436,147.436c0,81.426,66.009,147.436,147.436,147.436c16.288,0,31.91-2.745,46.558-7.622
	C244.36,368.734,202.068,313.564,202.068,248.426z"/>
<g>
	<path style="fill:#FFFFFF;" d="M256.387,364.822L256.387,364.822c-8.571,0-15.519-6.948-15.519-15.519v-46.558
		c0-8.571,6.948-15.519,15.519-15.519l0,0c8.571,0,15.519,6.948,15.519,15.519v46.558
		C271.906,357.874,264.958,364.822,256.387,364.822z"/>
	<circle style="fill:#FFFFFF;" cx="186.549" cy="194.105" r="31.039"/>
	<circle style="fill:#FFFFFF;" cx="326.225" cy="194.105" r="31.039"/>
</g>
<path d="M256.386,372.695c-12.898,0-23.392-10.493-23.392-23.392v-46.558c0-12.899,10.494-23.393,23.392-23.393
	c12.899,0,23.393,10.494,23.393,23.393v46.558C279.78,362.201,269.286,372.695,256.386,372.695z M256.386,295.098
	c-4.217,0-7.646,3.431-7.646,7.647v46.558c0,4.217,3.431,7.646,7.646,7.646c4.217,0,7.647-3.429,7.647-7.646v-46.558
	C264.034,298.528,260.603,295.098,256.386,295.098z"/>
<path d="M186.549,233.019c-21.456,0-38.912-17.456-38.912-38.911c0-21.456,17.456-38.912,38.912-38.912
	c21.455,0,38.911,17.456,38.911,38.912C225.461,215.564,208.005,233.019,186.549,233.019z M186.549,170.941
	c-12.774,0-23.166,10.392-23.166,23.166c0,12.773,10.392,23.165,23.166,23.165c12.774,0,23.165-10.392,23.165-23.165
	C209.715,181.334,199.323,170.941,186.549,170.941z"/>
<path d="M326.225,233.019c-21.456,0-38.912-17.456-38.912-38.911c0-21.456,17.456-38.912,38.912-38.912
	c21.455,0,38.911,17.456,38.911,38.912C365.136,215.564,347.68,233.019,326.225,233.019z M326.225,170.941
	c-12.774,0-23.166,10.392-23.166,23.166c0,12.773,10.392,23.165,23.166,23.165s23.165-10.392,23.165-23.165
	C349.39,181.334,338.999,170.941,326.225,170.941z"/>
<path d="M256.386,264.058c-12.898,0-23.392-10.494-23.392-23.392h15.746c0,4.217,3.431,7.646,7.646,7.646
	c4.217,0,7.647-3.43,7.647-7.646h15.746C279.78,253.565,269.286,264.058,256.386,264.058z"/>
<path style="fill:#84DCCF;" d="M403.935,147.549h-15.746c0-72.677-59.126-131.803-131.802-131.803S124.583,74.873,124.583,147.549
	h-15.746C108.838,66.19,175.028,0,256.386,0S403.935,66.19,403.935,147.549z"/>
<rect x="248.126" y="480.511" style="fill:#FBA218;" width="15.746" height="31.492"/>
<g>
	
		<rect x="301.229" y="463.853" transform="matrix(-0.7071 -0.7071 0.7071 -0.7071 207.164 1029.2609)" style="fill:#84DCCF;" width="31.039" height="15.746"/>
	
		<rect x="188.131" y="456.203" transform="matrix(-0.7071 -0.7071 0.7071 -0.7071 1.0406 943.8766)" style="fill:#84DCCF;" width="15.746" height="31.039"/>
</g>
<g>
	<rect x="364.645" y="232.776" style="fill:#FFFFFF;" width="15.746" height="38.84"/>
	<rect x="341.551" y="271.616" style="fill:#FFFFFF;" width="15.746" height="15.746"/>
</g>
<polygon points="46.582,241.171 30.836,241.171 30.836,256.917 46.582,256.917 46.582,303.105 62.327,303.105 62.327,193.933 
	46.582,193.933 "/>
<polygon points="481.168,241.171 465.422,241.171 465.422,193.933 449.676,193.933 449.676,303.105 465.422,303.105 
	465.422,256.917 481.168,256.917 "/>
<path d="M403.488,155.094h-15.746v10.348c-27.975-44.354-77.113-72.324-131.356-72.324c-54.744,0-104.287,28.49-132.125,73.558
	v-11.583h-15.746v23.382H70.039v139.902H85.8c4.088,69.15,61.63,124.156,131.788,124.156h1.254
	c3.241,9.036,11.889,15.52,22.025,15.52h23.28c12.898,0,23.392-10.494,23.392-23.393s-10.494-23.392-23.392-23.392h-23.28
	c-10.136,0-18.785,6.483-22.025,15.519h-1.254c-61.472,0-111.948-47.949-116.01-108.41h16.09
	c26.079,51.839,79.342,85.357,138.719,85.357c59.284,0,112.624-33.542,138.718-85.357h47.629V178.474h-39.246L403.488,155.094
	L403.488,155.094z M240.867,427.014h23.28c4.217,0,7.646,3.43,7.646,7.646c0,4.216-3.43,7.647-7.646,7.647h-23.28
	c-4.217,0-7.646-3.431-7.646-7.647S236.651,427.014,240.867,427.014z M108.838,302.631H85.785v-15.272h15.383v-15.746H85.785v-7.348
	h15.383v-15.746H85.785V194.22h23.053V302.631z M256.386,387.989c-59.572,0-112.277-37.551-131.803-93.628v-91.866
	c19.523-56.082,72.225-93.632,131.803-93.632c59.574,0,112.277,37.549,131.803,93.626v91.891
	C368.662,350.417,315.861,387.989,256.386,387.989z M403.935,194.22h23.053v54.298h-15.102v15.746h15.102v7.348h-15.102v15.746
	h15.102v15.272h-23.053V194.22z"/>
</svg>